<?xml version="1.0" encoding="UTF-8" standalone="no"?>
<svg
   xmlns:dc="http://purl.org/dc/elements/1.1/"
   xmlns:cc="http://creativecommons.org/ns#"
   xmlns:rdf="http://www.w3.org/1999/02/22-rdf-syntax-ns#"
   xmlns:svg="http://www.w3.org/2000/svg"
   xmlns="http://www.w3.org/2000/svg"
   viewBox="0 0 648 456"
   height="456"
   width="648"
   xml:space="preserve"
   id="svg2"
   version="1.1"><metadata
     id="metadata8"><rdf:RDF><cc:Work
         rdf:about=""><dc:format>image/svg+xml</dc:format><dc:type
           rdf:resource="http://purl.org/dc/dcmitype/StillImage" /></cc:Work></rdf:RDF></metadata><defs
     id="defs6" /><g
     transform="matrix(1.3333333,0,0,-1.3333333,0,456)"
     id="g10"><g
       transform="scale(0.1)"
       id="g12"><path
         id="path14"
         style="fill:#fab118;fill-opacity:1;fill-rule:nonzero;stroke:none"
         d="m 1098.4,1201.6 c 280.78,0 508.4,227.62 508.4,508.4 0,280.78 -227.62,508.4 -508.4,508.4 -280.783,0 -508.4,-227.62 -508.4,-508.4 0,-280.78 227.617,-508.4 508.4,-508.4" /><path
         id="path16"
         style="fill:none;stroke:#231f20;stroke-width:70;stroke-linecap:butt;stroke-linejoin:miter;stroke-miterlimit:4;stroke-dasharray:none;stroke-opacity:1"
         d="m 1098.4,1201.6 c 280.78,0 508.4,227.62 508.4,508.4 0,280.78 -227.62,508.4 -508.4,508.4 -280.783,0 -508.4,-227.62 -508.4,-508.4 0,-280.78 227.617,-508.4 508.4,-508.4 z" /><g
         transform="scale(10)"
         id="g18"><text
           id="text22"
           style="font-variant:normal;font-weight:normal;font-size:71.99981689px;font-family:CenturyGothic;-inkscape-font-specification:CenturyGothic;writing-mode:lr-tb;fill:#231f20;fill-opacity:1;fill-rule:nonzero;stroke:none"
           transform="matrix(1,0,0,-0.75000188,100.563,169.34)"><tspan
             id="tspan20"
             y="0"
             x="0 68.480034 120.77164">LIB</tspan></text>
</g><g
         transform="scale(10)"
         id="g24"><text
           id="text28"
           style="font-variant:normal;font-weight:normal;font-size:71.99981689px;font-family:CenturyGothic;-inkscape-font-specification:CenturyGothic;writing-mode:lr-tb;fill:#fab118;fill-opacity:1;fill-rule:nonzero;stroke:none"
           transform="matrix(1,0,0,-0.75000188,297.973,169.34)"><tspan
             id="tspan26"
             y="0"
             x="0 78.034843">KI</tspan></text>
</g><path
         id="path30"
         style="fill:none;stroke:#231f20;stroke-width:10;stroke-linecap:butt;stroke-linejoin:miter;stroke-miterlimit:4;stroke-dasharray:none;stroke-opacity:1"
         d="m 1098.4,1379.97 v -120" /><path
         id="path32"
         style="fill:none;stroke:#231f20;stroke-width:10;stroke-linecap:butt;stroke-linejoin:miter;stroke-miterlimit:4;stroke-dasharray:none;stroke-opacity:1"
         d="m 761.234,1710 h -120" /><path
         id="path34"
         style="fill:none;stroke:#231f20;stroke-width:10;stroke-linecap:butt;stroke-linejoin:miter;stroke-miterlimit:4;stroke-dasharray:none;stroke-opacity:1"
         d="m 1550.03,1710 h -120" /><path
         id="path36"
         style="fill:none;stroke:#231f20;stroke-width:10;stroke-linecap:butt;stroke-linejoin:miter;stroke-miterlimit:4;stroke-dasharray:none;stroke-opacity:1"
         d="M 803.055,1417.23 774.77,1388.95" /><path
         id="path38"
         style="fill:none;stroke:#231f20;stroke-width:10;stroke-linecap:butt;stroke-linejoin:miter;stroke-miterlimit:4;stroke-dasharray:none;stroke-opacity:1"
         d="m 1416.5,1398.95 -28.29,28.28" /><path
         id="path40"
         style="fill:none;stroke:#231f20;stroke-width:10;stroke-linecap:butt;stroke-linejoin:miter;stroke-miterlimit:4;stroke-dasharray:none;stroke-opacity:1"
         d="m 1422.25,2041.05 -28.28,-28.28" /><path
         id="path42"
         style="fill:none;stroke:#231f20;stroke-width:10;stroke-linecap:butt;stroke-linejoin:miter;stroke-miterlimit:4;stroke-dasharray:none;stroke-opacity:1"
         d="m 814.098,2002.15 -28.285,28.28" /><path
         id="path44"
         style="fill:none;stroke:#231f20;stroke-width:10;stroke-linecap:butt;stroke-linejoin:miter;stroke-miterlimit:4;stroke-dasharray:none;stroke-opacity:1"
         d="m 1755.63,1570.77 h 2121" /><g
         transform="scale(10)"
         id="g46"><text
           id="text50"
           style="font-variant:normal;font-weight:600;font-size:14.86130047px;font-family:MyriadPro;-inkscape-font-specification:MyriadPro-Semibold;writing-mode:lr-tb;fill:#2a3e92;fill-opacity:1;fill-rule:nonzero;stroke:none"
           transform="matrix(0.990095,0,0,-1,174.563,138.351)"><tspan
             id="tspan48"
             y="0"
             x="0 10.283663 16.614548 27.522682 36.246162 46.336803 51.939308 67.068039 77.143967 88.17099 98.246895 109.22939 124.35814 134.55292 145.50572 153.24843 158.85094 167.57442 177.35326 186.07674 193.73033 203.92511">kiosk managment system</tspan></text>
</g><g
         transform="scale(10)"
         id="g52" /></g></g></svg>